<svg viewBox="-250 -250 500 500" fill="none" xmlns="http://www.w3.org/2000/svg"><circle r="170" stroke="#D5D4C5" stroke-width="3"></circle><circle r="161" stroke="#D5D4C5" stroke-width="1.2" opacity=".55"></circle><line x1="0" y1="-148" x2="0" y2="-161" stroke="#D5D4C5" stroke-width="2" opacity="0.85"></line><line x1="8.43" y1="-160.78" x2="8.43" y2="-160.78" stroke="#D5D4C5" stroke-width="0.8" opacity="0.35"></line><line x1="16.83" y1="-160.12" x2="16.83" y2="-160.12" stroke="#D5D4C5" stroke-width="0.8" opacity="0.35"></line><line x1="25.19" y1="-159.02" x2="25.19" y2="-159.02" stroke="#D5D4C5" stroke-width="0.8" opacity="0.35"></line><line x1="33.47" y1="-157.48" x2="33.47" y2="-157.48" stroke="#D5D4C5" stroke-width="0.8" opacity="0.35"></line><line x1="40.12" y1="-149.72" x2="41.67" y2="-155.51" stroke="#D5D4C5" stroke-width="1.3" opacity="0.6"></line><line x1="49.75" y1="-153.12" x2="49.75" y2="-153.12" stroke="#D5D4C5" stroke-width="0.8" opacity="0.35"></line><line x1="57.7" y1="-150.31" x2="57.7" y2="-150.31" stroke="#D5D4C5" stroke-width="0.8" opacity="0.35"></line><line x1="65.48" y1="-147.08" x2="65.48" y2="-147.08" stroke="#D5D4C5" stroke-width="0.8" opacity="0.35"></line><line x1="73.09" y1="-143.45" x2="73.09" y2="-143.45" stroke="#D5D4C5" stroke-width="0.8" opacity="0.35"></line><line x1="77.5" y1="-134.23" x2="80.5" y2="-139.43" stroke="#D5D4C5" stroke-width="1.3" opacity="0.6"></line><line x1="87.69" y1="-135.03" x2="87.69" y2="-135.03" stroke="#D5D4C5" stroke-width="0.8" opacity="0.35"></line><line x1="94.63" y1="-130.25" x2="94.63" y2="-130.25" stroke="#D5D4C5" stroke-width="0.8" opacity="0.35"></line><line x1="101.32" y1="-125.12" x2="101.32" y2="-125.12" stroke="#D5D4C5" stroke-width="0.8" opacity="0.35"></line><line x1="107.73" y1="-119.65" x2="107.73" y2="-119.65" stroke="#D5D4C5" stroke-width="0.8" opacity="0.35"></line><line x1="104.65" y1="-104.65" x2="113.84" y2="-113.84" stroke="#D5D4C5" stroke-width="2" opacity="0.85"></line><line x1="119.65" y1="-107.73" x2="119.65" y2="-107.73" stroke="#D5D4C5" stroke-width="0.8" opacity="0.35"></line><line x1="125.12" y1="-101.32" x2="125.12" y2="-101.32" stroke="#D5D4C5" stroke-width="0.8" opacity="0.35"></line><line x1="130.25" y1="-94.63" x2="130.25" y2="-94.63" stroke="#D5D4C5" stroke-width="0.8" opacity="0.35"></line><line x1="135.03" y1="-87.69" x2="135.03" y2="-87.69" stroke="#D5D4C5" stroke-width="0.8" opacity="0.35"></line><line x1="134.23" y1="-77.5" x2="139.43" y2="-80.5" stroke="#D5D4C5" stroke-width="1.3" opacity="0.6"></line><line x1="143.45" y1="-73.09" x2="143.45" y2="-73.09" stroke="#D5D4C5" stroke-width="0.8" opacity="0.35"></line><line x1="147.08" y1="-65.48" x2="147.08" y2="-65.48" stroke="#D5D4C5" stroke-width="0.8" opacity="0.35"></line><line x1="150.31" y1="-57.7" x2="150.31" y2="-57.7" stroke="#D5D4C5" stroke-width="0.8" opacity="0.35"></line><line x1="153.12" y1="-49.75" x2="153.12" y2="-49.75" stroke="#D5D4C5" stroke-width="0.8" opacity="0.35"></line><line x1="149.72" y1="-40.12" x2="155.51" y2="-41.67" stroke="#D5D4C5" stroke-width="1.3" opacity="0.6"></line><line x1="157.48" y1="-33.47" x2="157.48" y2="-33.47" stroke="#D5D4C5" stroke-width="0.8" opacity="0.35"></line><line x1="159.02" y1="-25.19" x2="159.02" y2="-25.19" stroke="#D5D4C5" stroke-width="0.8" opacity="0.35"></line><line x1="160.12" y1="-16.83" x2="160.12" y2="-16.83" stroke="#D5D4C5" stroke-width="0.8" opacity="0.35"></line><line x1="160.78" y1="-8.43" x2="160.78" y2="-8.43" stroke="#D5D4C5" stroke-width="0.8" opacity="0.35"></line><line x1="148" y1="0" x2="161" y2="0" stroke="#D5D4C5" stroke-width="2" opacity="0.85"></line><line x1="160.78" y1="8.43" x2="160.78" y2="8.43" stroke="#D5D4C5" stroke-width="0.8" opacity="0.35"></line><line x1="160.12" y1="16.83" x2="160.12" y2="16.83" stroke="#D5D4C5" stroke-width="0.8" opacity="0.35"></line><line x1="159.02" y1="25.19" x2="159.02" y2="25.19" stroke="#D5D4C5" stroke-width="0.8" opacity="0.35"></line><line x1="157.48" y1="33.47" x2="157.48" y2="33.47" stroke="#D5D4C5" stroke-width="0.8" opacity="0.35"></line><line x1="149.72" y1="40.12" x2="155.51" y2="41.67" stroke="#D5D4C5" stroke-width="1.3" opacity="0.6"></line><line x1="153.12" y1="49.75" x2="153.12" y2="49.75" stroke="#D5D4C5" stroke-width="0.8" opacity="0.35"></line><line x1="150.31" y1="57.7" x2="150.31" y2="57.7" stroke="#D5D4C5" stroke-width="0.8" opacity="0.35"></line><line x1="147.08" y1="65.48" x2="147.08" y2="65.48" stroke="#D5D4C5" stroke-width="0.8" opacity="0.35"></line><line x1="143.45" y1="73.09" x2="143.45" y2="73.09" stroke="#D5D4C5" stroke-width="0.8" opacity="0.35"></line><line x1="134.23" y1="77.5" x2="139.43" y2="80.5" stroke="#D5D4C5" stroke-width="1.3" opacity="0.6"></line><line x1="135.03" y1="87.69" x2="135.03" y2="87.69" stroke="#D5D4C5" stroke-width="0.8" opacity="0.35"></line><line x1="130.25" y1="94.63" x2="130.25" y2="94.63" stroke="#D5D4C5" stroke-width="0.8" opacity="0.35"></line><line x1="125.12" y1="101.32" x2="125.12" y2="101.32" stroke="#D5D4C5" stroke-width="0.8" opacity="0.35"></line><line x1="119.65" y1="107.73" x2="119.65" y2="107.73" stroke="#D5D4C5" stroke-width="0.8" opacity="0.35"></line><line x1="104.65" y1="104.65" x2="113.84" y2="113.84" stroke="#D5D4C5" stroke-width="2" opacity="0.85"></line><line x1="107.73" y1="119.65" x2="107.73" y2="119.65" stroke="#D5D4C5" stroke-width="0.8" opacity="0.35"></line><line x1="101.32" y1="125.12" x2="101.32" y2="125.12" stroke="#D5D4C5" stroke-width="0.8" opacity="0.35"></line><line x1="94.63" y1="130.25" x2="94.63" y2="130.25" stroke="#D5D4C5" stroke-width="0.8" opacity="0.35"></line><line x1="87.69" y1="135.03" x2="87.69" y2="135.03" stroke="#D5D4C5" stroke-width="0.8" opacity="0.35"></line><line x1="77.5" y1="134.23" x2="80.5" y2="139.43" stroke="#D5D4C5" stroke-width="1.3" opacity="0.6"></line><line x1="73.09" y1="143.45" x2="73.09" y2="143.45" stroke="#D5D4C5" stroke-width="0.8" opacity="0.35"></line><line x1="65.48" y1="147.08" x2="65.48" y2="147.08" stroke="#D5D4C5" stroke-width="0.8" opacity="0.35"></line><line x1="57.7" y1="150.31" x2="57.7" y2="150.31" stroke="#D5D4C5" stroke-width="0.8" opacity="0.35"></line><line x1="49.75" y1="153.12" x2="49.75" y2="153.12" stroke="#D5D4C5" stroke-width="0.8" opacity="0.35"></line><line x1="40.12" y1="149.72" x2="41.67" y2="155.51" stroke="#D5D4C5" stroke-width="1.3" opacity="0.6"></line><line x1="33.47" y1="157.48" x2="33.47" y2="157.48" stroke="#D5D4C5" stroke-width="0.8" opacity="0.35"></line><line x1="25.19" y1="159.02" x2="25.19" y2="159.02" stroke="#D5D4C5" stroke-width="0.8" opacity="0.35"></line><line x1="16.83" y1="160.12" x2="16.83" y2="160.12" stroke="#D5D4C5" stroke-width="0.8" opacity="0.35"></line><line x1="8.43" y1="160.78" x2="8.43" y2="160.78" stroke="#D5D4C5" stroke-width="0.8" opacity="0.35"></line><line x1="0" y1="148" x2="0" y2="161" stroke="#D5D4C5" stroke-width="2" opacity="0.85"></line><line x1="-8.43" y1="160.78" x2="-8.43" y2="160.78" stroke="#D5D4C5" stroke-width="0.8" opacity="0.35"></line><line x1="-16.83" y1="160.12" x2="-16.83" y2="160.12" stroke="#D5D4C5" stroke-width="0.8" opacity="0.35"></line><line x1="-25.19" y1="159.02" x2="-25.19" y2="159.02" stroke="#D5D4C5" stroke-width="0.8" opacity="0.35"></line><line x1="-33.47" y1="157.48" x2="-33.47" y2="157.48" stroke="#D5D4C5" stroke-width="0.8" opacity="0.35"></line><line x1="-40.12" y1="149.72" x2="-41.67" y2="155.51" stroke="#D5D4C5" stroke-width="1.3" opacity="0.6"></line><line x1="-49.75" y1="153.12" x2="-49.75" y2="153.12" stroke="#D5D4C5" stroke-width="0.8" opacity="0.35"></line><line x1="-57.7" y1="150.31" x2="-57.7" y2="150.31" stroke="#D5D4C5" stroke-width="0.8" opacity="0.35"></line><line x1="-65.48" y1="147.08" x2="-65.48" y2="147.08" stroke="#D5D4C5" stroke-width="0.8" opacity="0.35"></line><line x1="-73.09" y1="143.45" x2="-73.09" y2="143.45" stroke="#D5D4C5" stroke-width="0.8" opacity="0.35"></line><line x1="-77.5" y1="134.23" x2="-80.5" y2="139.43" stroke="#D5D4C5" stroke-width="1.3" opacity="0.6"></line><line x1="-87.69" y1="135.03" x2="-87.69" y2="135.03" stroke="#D5D4C5" stroke-width="0.8" opacity="0.35"></line><line x1="-94.63" y1="130.25" x2="-94.63" y2="130.25" stroke="#D5D4C5" stroke-width="0.8" opacity="0.35"></line><line x1="-101.32" y1="125.12" x2="-101.32" y2="125.12" stroke="#D5D4C5" stroke-width="0.8" opacity="0.35"></line><line x1="-107.73" y1="119.65" x2="-107.73" y2="119.65" stroke="#D5D4C5" stroke-width="0.8" opacity="0.35"></line><line x1="-104.65" y1="104.65" x2="-113.84" y2="113.84" stroke="#D5D4C5" stroke-width="2" opacity="0.85"></line><line x1="-119.65" y1="107.73" x2="-119.65" y2="107.73" stroke="#D5D4C5" stroke-width="0.8" opacity="0.35"></line><line x1="-125.12" y1="101.32" x2="-125.12" y2="101.32" stroke="#D5D4C5" stroke-width="0.8" opacity="0.35"></line><line x1="-130.25" y1="94.63" x2="-130.25" y2="94.63" stroke="#D5D4C5" stroke-width="0.8" opacity="0.35"></line><line x1="-135.03" y1="87.69" x2="-135.03" y2="87.69" stroke="#D5D4C5" stroke-width="0.8" opacity="0.35"></line><line x1="-134.23" y1="77.5" x2="-139.43" y2="80.5" stroke="#D5D4C5" stroke-width="1.3" opacity="0.6"></line><line x1="-143.45" y1="73.09" x2="-143.45" y2="73.09" stroke="#D5D4C5" stroke-width="0.8" opacity="0.35"></line><line x1="-147.08" y1="65.48" x2="-147.08" y2="65.48" stroke="#D5D4C5" stroke-width="0.8" opacity="0.35"></line><line x1="-150.31" y1="57.7" x2="-150.31" y2="57.7" stroke="#D5D4C5" stroke-width="0.8" opacity="0.35"></line><line x1="-153.12" y1="49.75" x2="-153.12" y2="49.75" stroke="#D5D4C5" stroke-width="0.8" opacity="0.35"></line><line x1="-149.72" y1="40.12" x2="-155.51" y2="41.67" stroke="#D5D4C5" stroke-width="1.3" opacity="0.6"></line><line x1="-157.48" y1="33.47" x2="-157.48" y2="33.47" stroke="#D5D4C5" stroke-width="0.8" opacity="0.35"></line><line x1="-159.02" y1="25.19" x2="-159.02" y2="25.19" stroke="#D5D4C5" stroke-width="0.8" opacity="0.35"></line><line x1="-160.12" y1="16.83" x2="-160.12" y2="16.83" stroke="#D5D4C5" stroke-width="0.8" opacity="0.35"></line><line x1="-160.78" y1="8.43" x2="-160.78" y2="8.43" stroke="#D5D4C5" stroke-width="0.8" opacity="0.35"></line><line x1="-148" y1="0" x2="-161" y2="0" stroke="#D5D4C5" stroke-width="2" opacity="0.85"></line><line x1="-160.78" y1="-8.43" x2="-160.78" y2="-8.43" stroke="#D5D4C5" stroke-width="0.8" opacity="0.35"></line><line x1="-160.12" y1="-16.83" x2="-160.12" y2="-16.83" stroke="#D5D4C5" stroke-width="0.8" opacity="0.35"></line><line x1="-159.02" y1="-25.19" x2="-159.02" y2="-25.19" stroke="#D5D4C5" stroke-width="0.8" opacity="0.35"></line><line x1="-157.48" y1="-33.47" x2="-157.48" y2="-33.47" stroke="#D5D4C5" stroke-width="0.8" opacity="0.35"></line><line x1="-149.72" y1="-40.12" x2="-155.51" y2="-41.67" stroke="#D5D4C5" stroke-width="1.3" opacity="0.6"></line><line x1="-153.12" y1="-49.75" x2="-153.12" y2="-49.75" stroke="#D5D4C5" stroke-width="0.8" opacity="0.35"></line><line x1="-150.31" y1="-57.7" x2="-150.31" y2="-57.7" stroke="#D5D4C5" stroke-width="0.8" opacity="0.35"></line><line x1="-147.08" y1="-65.48" x2="-147.08" y2="-65.48" stroke="#D5D4C5" stroke-width="0.8" opacity="0.35"></line><line x1="-143.45" y1="-73.09" x2="-143.45" y2="-73.09" stroke="#D5D4C5" stroke-width="0.8" opacity="0.35"></line><line x1="-134.23" y1="-77.5" x2="-139.43" y2="-80.5" stroke="#D5D4C5" stroke-width="1.3" opacity="0.6"></line><line x1="-135.03" y1="-87.69" x2="-135.03" y2="-87.69" stroke="#D5D4C5" stroke-width="0.8" opacity="0.35"></line><line x1="-130.25" y1="-94.63" x2="-130.25" y2="-94.63" stroke="#D5D4C5" stroke-width="0.8" opacity="0.35"></line><line x1="-125.12" y1="-101.32" x2="-125.12" y2="-101.32" stroke="#D5D4C5" stroke-width="0.8" opacity="0.35"></line><line x1="-119.65" y1="-107.73" x2="-119.65" y2="-107.73" stroke="#D5D4C5" stroke-width="0.8" opacity="0.35"></line><line x1="-104.65" y1="-104.65" x2="-113.84" y2="-113.84" stroke="#D5D4C5" stroke-width="2" opacity="0.85"></line><line x1="-107.73" y1="-119.65" x2="-107.73" y2="-119.65" stroke="#D5D4C5" stroke-width="0.8" opacity="0.35"></line><line x1="-101.32" y1="-125.12" x2="-101.32" y2="-125.12" stroke="#D5D4C5" stroke-width="0.8" opacity="0.35"></line><line x1="-94.63" y1="-130.25" x2="-94.63" y2="-130.25" stroke="#D5D4C5" stroke-width="0.8" opacity="0.35"></line><line x1="-87.69" y1="-135.03" x2="-87.69" y2="-135.03" stroke="#D5D4C5" stroke-width="0.8" opacity="0.35"></line><line x1="-77.5" y1="-134.23" x2="-80.5" y2="-139.43" stroke="#D5D4C5" stroke-width="1.3" opacity="0.6"></line><line x1="-73.09" y1="-143.45" x2="-73.09" y2="-143.45" stroke="#D5D4C5" stroke-width="0.8" opacity="0.35"></line><line x1="-65.48" y1="-147.08" x2="-65.48" y2="-147.08" stroke="#D5D4C5" stroke-width="0.8" opacity="0.35"></line><line x1="-57.7" y1="-150.31" x2="-57.7" y2="-150.31" stroke="#D5D4C5" stroke-width="0.8" opacity="0.35"></line><line x1="-49.75" y1="-153.12" x2="-49.75" y2="-153.12" stroke="#D5D4C5" stroke-width="0.8" opacity="0.35"></line><line x1="-40.12" y1="-149.72" x2="-41.67" y2="-155.51" stroke="#D5D4C5" stroke-width="1.3" opacity="0.6"></line><line x1="-33.47" y1="-157.48" x2="-33.47" y2="-157.48" stroke="#D5D4C5" stroke-width="0.8" opacity="0.35"></line><line x1="-25.19" y1="-159.02" x2="-25.19" y2="-159.02" stroke="#D5D4C5" stroke-width="0.8" opacity="0.35"></line><line x1="-16.83" y1="-160.12" x2="-16.83" y2="-160.12" stroke="#D5D4C5" stroke-width="0.8" opacity="0.35"></line><line x1="-8.43" y1="-160.78" x2="-8.43" y2="-160.78" stroke="#D5D4C5" stroke-width="0.8" opacity="0.35"></line><path d="M -7.65 -18.48 L 0 -128 L 7.65 -18.48" stroke="#9F7B4B" stroke-width="2.2" stroke-linejoin="round"></path><line x1="0" y1="0" x2="0" y2="-128" stroke="#9F7B4B" stroke-width="1.1" opacity="0.9"></line><line x1="0" y1="0" x2="-7.65" y2="-18.48" stroke="#9F7B4B" stroke-width="0.7" opacity=".4"></line><path d="M 7.65 -18.48 L 46.67 -46.67 L 18.48 -7.65" stroke="#D5D4C5" stroke-width="1.6" stroke-linejoin="round"></path><line x1="0" y1="0" x2="46.67" y2="-46.67" stroke="#D5D4C5" stroke-width="0.8" opacity="0.55"></line><line x1="0" y1="0" x2="7.65" y2="-18.48" stroke="#D5D4C5" stroke-width="0.7" opacity=".4"></line><path d="M 18.48 -7.65 L 128 0 L 18.48 7.65" stroke="#D5D4C5" stroke-width="2.2" stroke-linejoin="round"></path><line x1="0" y1="0" x2="128" y2="0" stroke="#D5D4C5" stroke-width="1.1" opacity="0.55"></line><line x1="0" y1="0" x2="18.48" y2="-7.65" stroke="#D5D4C5" stroke-width="0.7" opacity=".4"></line><path d="M 18.48 7.65 L 46.67 46.67 L 7.65 18.48" stroke="#D5D4C5" stroke-width="1.6" stroke-linejoin="round"></path><line x1="0" y1="0" x2="46.67" y2="46.67" stroke="#D5D4C5" stroke-width="0.8" opacity="0.55"></line><line x1="0" y1="0" x2="18.48" y2="7.65" stroke="#D5D4C5" stroke-width="0.7" opacity=".4"></line><path d="M 7.65 18.48 L 0 128 L -7.65 18.48" stroke="#D5D4C5" stroke-width="2.2" stroke-linejoin="round"></path><line x1="0" y1="0" x2="0" y2="128" stroke="#D5D4C5" stroke-width="1.1" opacity="0.55"></line><line x1="0" y1="0" x2="7.65" y2="18.48" stroke="#D5D4C5" stroke-width="0.7" opacity=".4"></line><path d="M -7.65 18.48 L -46.67 46.67 L -18.48 7.65" stroke="#D5D4C5" stroke-width="1.6" stroke-linejoin="round"></path><line x1="0" y1="0" x2="-46.67" y2="46.67" stroke="#D5D4C5" stroke-width="0.8" opacity="0.55"></line><line x1="0" y1="0" x2="-7.65" y2="18.48" stroke="#D5D4C5" stroke-width="0.7" opacity=".4"></line><path d="M -18.48 7.65 L -128 0 L -18.48 -7.65" stroke="#D5D4C5" stroke-width="2.2" stroke-linejoin="round"></path><line x1="0" y1="0" x2="-128" y2="0" stroke="#D5D4C5" stroke-width="1.1" opacity="0.55"></line><line x1="0" y1="0" x2="-18.48" y2="7.65" stroke="#D5D4C5" stroke-width="0.7" opacity=".4"></line><path d="M -18.48 -7.65 L -46.67 -46.67 L -7.65 -18.48" stroke="#D5D4C5" stroke-width="1.6" stroke-linejoin="round"></path><line x1="0" y1="0" x2="-46.67" y2="-46.67" stroke="#D5D4C5" stroke-width="0.8" opacity="0.55"></line><line x1="0" y1="0" x2="-18.48" y2="-7.65" stroke="#D5D4C5" stroke-width="0.7" opacity=".4"></line><path d="M -7.65 -18.48 L 0 -128 L 0 0 Z" fill="#9F7B4B" opacity=".92"></path><circle r="16" fill="#5A7B79" stroke="#D5D4C5" stroke-width="2.2"></circle><circle r="11" fill="none" stroke="#D5D4C5" stroke-width="0.9" opacity=".5"></circle><circle r="4.5" fill="#9F7B4B"></circle></svg>