<svg xmlns="http://www.w3.org/2000/svg" viewBox="378.08 273.57 329.30 74.71"><path fill="currentColor" fill-rule="evenodd" d="M450.96 273.62L450.38 273.80L449.96 274.14L449.70 274.64L449.59 275.41L449.58 304.39L449.48 305.44L449.17 305.88L448.75 305.85L448.47 305.63L446.03 302.34L443.69 300.00L440.05 297.55L436.67 295.84L433.31 294.49L429.75 293.50L428.29 293.30L424.46 292.44L422.02 292.33L420.40 291.93L419.44 291.87L412.33 291.88L410.02 292.35L406.79 292.43L402.75 293.32L401.39 293.50L397.62 294.56L394.72 295.72L392.86 296.64L389.27 298.76L385.79 301.62L382.91 305.10L381.64 307.01L380.49 309.28L379.26 312.76L378.58 315.50L378.48 318.34L378.08 320.07L378.11 320.81L378.48 322.33L378.62 325.39L379.17 327.62L380.18 330.68L381.83 333.97L382.96 335.64L384.10 336.91L385.42 338.64L386.76 339.58L388.25 340.90L391.31 342.92L393.68 344.10L397.74 345.63L404.03 347.19L405.68 347.34L407.41 347.75L410.13 347.83L411.64 348.21L412.46 348.29L418.65 348.26L420.61 347.82L423.95 347.72L427.78 346.87L429.24 346.67L431.66 346.05L436.32 344.48L438.78 343.27L441.72 341.51L443.40 340.39L444.15 339.74L446.42 337.44L447.42 336.04L448.54 334.73L449.02 334.44L449.39 334.69L449.54 335.29L449.59 344.80L449.75 345.65L450.11 346.05L450.58 346.21L451.42 346.26L469.13 346.20L469.60 346.05L469.97 345.77L470.34 344.88L470.41 334.12L470.53 333.25L470.74 332.97L470.95 332.91L471.55 333.35L472.92 335.28L474.85 337.28L475.89 338.66L477.19 339.65L478.45 340.79L482.09 342.74L483.72 343.77L486.87 345.06L488.60 345.63L492.66 346.65L494.21 346.87L498.16 347.74L501.90 347.82L504.21 348.28L511.54 348.26L513.39 347.83L516.34 347.72L523.76 346.14L528.71 344.48L532.95 342.38L536.73 339.94L537.68 339.11L540.45 336.30L543.33 331.93L543.63 331.60L543.95 331.48L544.28 331.56L544.61 331.86L545.65 333.74L546.76 335.43L548.98 338.16L550.36 339.19L552.06 340.79L554.61 342.43L558.77 344.48L563.72 346.14L568.39 347.17L570.15 347.34L571.65 347.72L575.00 347.82L576.95 348.26L584.28 348.28L586.59 347.82L589.32 347.74L593.36 346.85L594.72 346.67L598.98 345.60L600.58 344.92L603.32 343.98L605.17 343.04L610.11 339.72L612.17 337.71L613.16 336.53L613.62 336.31L614.03 336.43L614.39 336.83L616.01 340.03L616.69 341.00L619.36 343.67L621.55 345.16L625.05 346.61L629.21 347.66L632.47 347.83L634.31 348.26L638.95 348.26L640.80 347.83L643.52 347.75L645.25 347.34L647.10 347.15L654.41 345.06L657.74 343.70L660.63 342.01L661.82 341.67L662.58 341.81L663.00 342.28L663.22 342.95L663.38 344.70L663.77 345.58L664.30 346.06L665.01 346.24L703.57 346.26L705.60 346.40L706.53 346.17L706.85 345.86L707.00 345.50L707.09 344.55L706.97 342.67L707.38 340.72L707.00 338.90L706.93 337.81L706.93 276.56L707.02 274.67L706.81 274.01L706.26 273.67L705.09 273.57L687.84 273.57L686.83 273.71L686.34 274.11L686.18 274.57L686.13 275.41L686.12 303.75L685.99 305.27L685.90 305.56L685.67 305.73L685.30 305.48L684.01 302.94L682.52 300.75L680.23 298.47L678.27 297.13L675.30 295.64L670.84 294.14L668.90 293.80L665.46 292.93L663.13 292.84L661.18 292.40L657.66 292.35L655.48 291.89L646.47 291.88L645.65 291.95L644.03 292.35L641.19 292.44L639.69 292.82L638.26 292.93L636.64 293.33L634.99 293.48L632.66 294.05L629.02 295.11L626.19 296.23L624.59 297.04L622.61 298.36L618.60 302.34L618.05 303.19L616.45 306.28L616.16 306.63L615.77 306.77L615.37 306.62L614.99 306.23L612.86 303.16L609.02 299.38L606.80 297.91L601.11 295.10L599.39 294.54L593.29 293.01L591.44 292.82L589.83 292.43L586.59 292.35L584.28 291.88L576.42 291.88L575.60 291.95L574.09 292.33L571.76 292.43L570.15 292.82L568.60 292.95L564.23 294.03L559.38 295.64L555.80 297.40L551.91 300.00L547.97 303.91L547.32 304.67L545.45 307.49L544.67 309.13L544.41 309.37L544.08 309.45L543.75 309.33L543.45 309.00L542.30 306.85L540.72 304.62L535.80 299.63L533.74 298.26L531.95 297.51L529.89 296.26L527.08 295.13L521.82 293.54L520.17 293.30L518.87 292.95L517.22 292.81L515.83 292.44L513.39 292.33L511.88 291.95L511.06 291.88L502.69 291.88L500.49 292.33L498.05 292.44L490.63 294.03L485.78 295.64L480.86 298.10L476.79 301.01L473.94 303.87L471.38 307.54L471.10 307.78L470.78 307.80L470.49 307.34L470.40 306.17L470.39 275.41L470.33 274.57L470.17 274.11L469.69 273.71L468.80 273.58L450.96 273.62M646.26 306.17L643.82 306.76L642.20 307.30L641.26 307.75L640.22 308.49L639.76 308.92L639.39 309.57L639.04 310.61L638.74 312.09L638.45 312.44L638.02 312.63L618.31 312.73L617.44 313.00L616.20 314.05L614.87 314.23L595.00 314.16L594.46 313.96L594.10 313.68L592.79 311.57L590.89 309.65L589.97 309.05L586.75 307.45L586.09 307.22L584.74 307.04L583.12 306.64L579.08 306.61L578.04 306.71L575.62 307.34L572.30 308.73L571.24 309.57L568.63 312.29L568.00 313.55L566.90 317.02L566.83 321.54L566.93 322.85L567.56 325.26L568.53 327.21L570.05 329.39L571.20 330.51L572.04 331.07L574.79 332.38L579.88 333.51L582.10 333.52L583.83 333.11L585.58 332.95L587.81 332.38L588.79 331.96L590.03 331.29L592.04 329.76L592.49 329.31L593.51 327.81L594.73 325.58L595.36 325.07L596.47 324.91L613.22 324.91L614.50 324.80L615.45 324.22L616.69 322.55L618.28 320.95L620.53 319.40L622.50 318.45L628.70 316.39L630.25 316.17L631.55 315.83L633.20 315.68L634.70 315.30L637.43 315.22L639.61 314.76L644.54 314.71L646.60 314.26L661.06 314.23L662.16 314.07L662.64 313.54L662.73 312.67L662.57 311.84L661.97 310.27L660.81 308.76L659.57 307.85L658.33 307.18L657.26 306.74L654.69 306.14L646.26 306.17M413.27 306.67L410.84 307.27L408.01 308.39L407.10 308.87L406.34 309.50L404.39 311.49L403.17 313.32L402.52 315.08L401.93 317.53L401.93 322.64L403.29 326.72L404.63 328.82L405.16 329.43L407.61 331.29L409.01 332.05L411.54 332.95L413.29 333.11L414.91 333.51L415.89 333.55L416.96 333.47L418.35 333.11L420.10 332.95L423.17 331.95L425.24 330.98L426.38 330.08L427.92 327.94L428.96 325.67L429.40 325.23L430.03 324.99L447.99 324.91L448.96 324.74L449.41 324.29L449.58 323.20L449.57 315.70L449.41 314.85L448.96 314.41L447.87 314.24L430.61 314.23L429.42 314.14L428.89 313.91L428.50 313.55L426.91 311.20L426.13 310.33L424.91 309.15L423.80 308.46L420.81 307.27L419.16 307.02L417.87 306.67L413.27 306.67M505.15 306.67L503.86 307.02L502.20 307.27L498.44 308.59L497.26 309.45L494.52 312.30L493.57 313.75L493.26 314.44L492.85 315.69L492.62 317.25L492.28 318.54L492.25 320.88L492.64 322.50L492.82 323.86L493.55 326.05L494.75 328.16L496.22 329.61L498.47 331.29L499.53 331.88L500.68 332.38L502.91 332.95L505.06 333.09L506.68 333.48L507.41 333.45L508.82 333.09L510.97 332.95L514.31 331.85L516.10 330.98L517.12 330.21L518.84 328.38L520.19 326.31L521.05 324.37L521.64 321.79L521.66 318.88L521.56 317.83L521.00 315.59L520.52 314.17L519.24 311.90L518.57 311.03L516.42 309.38L514.79 308.34L511.98 307.22L508.89 306.63L505.15 306.67M655.40 323.96L653.56 324.38L647.39 324.45L645.78 324.85L643.61 324.99L640.92 325.71L640.09 326.16L639.46 326.66L638.79 327.39L638.35 328.10L638.02 328.91L637.93 329.56L637.96 330.26L638.19 331.04L638.97 332.29L640.15 333.15L641.80 333.91L643.45 334.17L644.74 334.51L647.19 334.53L648.81 334.12L650.97 333.98L653.67 333.26L657.99 331.12L659.05 330.39L661.00 328.29L661.86 326.73L662.21 325.69L662.23 324.52L662.03 324.19L661.62 323.98L660.43 323.89L655.40 323.96"/></svg>