<svg xmlns="http://www.w3.org/2000/svg" viewBox="437.058594 167.160156 217.88671799999992 79.441406"><path fill-rule="evenodd" fill="currentColor" d="M 582.707031 167.183594 L 581.121094 167.511719 L 579.828125 168.144531 L 579.371094 168.488281 L 578.773438 169.09375 L 578.550781 169.429688 L 578.441406 169.792969 L 578.195312 171.476562 L 578.164062 172.242188 L 578.164062 182.277344 L 578.402344 184.203125 L 578.402344 193.914062 L 578.351562 194.515625 L 578.164062 195.285156 L 578.019531 195.628906 L 577.835938 195.839844 L 577.441406 196 L 576.972656 195.976562 L 576.675781 195.792969 L 576.515625 195.40625 L 576.476562 186.449219 L 576.359375 185.765625 L 575.992188 185.085938 L 575.667969 184.6875 L 575.3125 184.402344 L 571.992188 182.441406 L 569.324219 180.621094 L 567.582031 179.640625 L 566.410156 178.804688 L 565.859375 178.589844 L 565.558594 178.632812 L 565.304688 178.773438 L 563.5625 180.238281 L 561.605469 182.203125 L 560.816406 183.175781 L 559.523438 184.285156 L 549.804688 194.039062 L 549.273438 194.710938 L 549.128906 195.4375 L 549.125 198.566406 L 549.300781 200.171875 L 549.023438 201.777344 L 549.121094 203.222656 L 549.125 223.285156 L 549.265625 224.261719 L 549.71875 225.8125 L 550.046875 226.527344 L 550.5625 227.214844 L 551.1875 227.710938 L 552.417969 228.160156 L 553.238281 228.296875 L 556.644531 228.265625 L 559.765625 227.636719 L 562.234375 227.292969 L 564.082031 226.914062 L 565.042969 226.824219 L 566.351562 226.53125 L 567.078125 226.445312 L 567.539062 226.460938 L 567.828125 226.585938 L 568.015625 226.875 L 568.078125 227.378906 L 568.066406 228.253906 L 567.976562 228.644531 L 567.707031 228.9375 L 567.117188 229.148438 L 562.476562 229.792969 L 560.484375 230.191406 L 557.917969 230.511719 L 554.484375 231.15625 L 553.285156 231.246094 L 550.828125 231.742188 L 550.121094 232.078125 L 549.832031 232.351562 L 549.578125 232.734375 L 549.1875 233.863281 L 549.125 234.523438 L 549.125 237.25 L 549.183594 237.910156 L 549.652344 240.003906 L 549.902344 240.476562 L 550.320312 240.855469 L 550.789062 241.027344 L 551.390625 241.050781 L 554.964844 240.546875 L 561.277344 239.421875 L 562.402344 239.34375 L 567.277344 238.457031 L 571.355469 237.886719 L 574.125 237.378906 L 574.890625 237.105469 L 575.308594 236.800781 L 575.671875 236.363281 L 576.058594 235.632812 L 576.210938 235.0625 L 576.476562 233.078125 L 576.488281 225.933594 L 576.527344 225.5 L 576.644531 225.226562 L 576.855469 225.03125 L 577.253906 224.871094 L 579.640625 224.371094 L 581.871094 223.640625 L 582.578125 223.3125 L 584.507812 222.203125 L 585.023438 222.179688 L 585.910156 222.484375 L 587.085938 222.746094 L 590 222.730469 L 593.671875 222.085938 L 594.871094 221.996094 L 599.910156 221.125 L 602.550781 220.792969 L 605.597656 220.171875 L 606.871094 220.070312 L 613.109375 218.957031 L 615.75 218.625 L 623.1875 217.269531 L 624.246094 217.203125 L 626.546875 216.789062 L 627.4375 216.710938 L 632.546875 215.828125 L 633.507812 215.734375 L 635.425781 215.34375 L 637.996094 215.023438 L 639.988281 214.621094 L 641.1875 214.53125 L 644.234375 213.914062 L 646.707031 213.570312 L 649.773438 212.796875 L 651.503906 211.96875 L 653.058594 210.71875 L 653.90625 209.398438 L 654.148438 208.847656 L 654.632812 207.164062 L 654.945312 204.585938 L 654.945312 178.824219 L 654.730469 177.4375 L 654.667969 176.207031 L 654.347656 174.929688 L 654.019531 174.214844 L 653.488281 173.386719 L 653.160156 172.992188 L 652.742188 172.683594 L 651.875 172.273438 L 650.945312 172.007812 L 647.738281 171.996094 L 645.195312 172.410156 L 644.066406 172.488281 L 642.386719 172.878906 L 641.1875 172.972656 L 634.949219 174.085938 L 630.867188 174.65625 L 628.949219 175.046875 L 626.476562 175.390625 L 624.628906 175.769531 L 623.429688 175.859375 L 618.390625 176.730469 L 617.359375 176.835938 L 612.628906 177.695312 L 611.429688 177.785156 L 609.511719 178.179688 L 605.238281 178.832031 L 605.003906 178.765625 L 604.90625 178.625 L 604.902344 178.378906 L 605.003906 178.152344 L 605.574219 177.363281 L 606.53125 176.316406 L 607.351562 175.132812 L 608.792969 173.289062 L 609.179688 172.640625 L 609.214844 172.132812 L 608.972656 171.65625 L 608.269531 170.839844 L 606.589844 169.472656 L 605.386719 168.675781 L 604.644531 168.296875 L 604.011719 168.140625 L 603.398438 168.199219 L 603.078125 168.351562 L 602.734375 168.652344 L 601.179688 170.628906 L 600.496094 171.382812 L 598.058594 174.476562 L 596.691406 176.074219 L 595.523438 177.714844 L 594.699219 178.648438 L 593.535156 180.210938 L 591.578125 182.503906 L 590.65625 183.824219 L 589.660156 184.910156 L 588.121094 186.976562 L 587.902344 187.398438 L 587.828125 187.738281 L 587.839844 188.117188 L 587.960938 188.5625 L 588.335938 189.15625 L 589.097656 189.59375 L 589.769531 189.675781 L 592.878906 189.261719 L 594.800781 188.871094 L 597.273438 188.527344 L 599.191406 188.136719 L 600.390625 188.046875 L 606.628906 186.933594 L 608.070312 186.84375 L 609.679688 186.464844 L 611.261719 186.203125 L 612.390625 186.121094 L 615.4375 185.503906 L 616.46875 185.398438 L 621.507812 184.527344 L 622.46875 184.4375 L 626.789062 183.714844 L 628.636719 183.335938 L 631.515625 183.003906 L 633.578125 182.589844 L 634.636719 182.523438 L 637.753906 181.890625 L 639.195312 181.800781 L 642.074219 181.167969 L 643.273438 181.078125 L 645.574219 180.667969 L 645.917969 180.671875 L 646.210938 180.765625 L 646.414062 180.964844 L 646.515625 181.257812 L 646.546875 183.878906 L 646.496094 184.316406 L 646.378906 184.59375 L 646.027344 184.882812 L 645.15625 185.132812 L 642.316406 185.503906 L 637.828125 186.363281 L 636.628906 186.457031 L 634.707031 186.84375 L 633.746094 186.9375 L 628.707031 187.804688 L 627.675781 187.910156 L 626.070312 188.289062 L 624.867188 188.378906 L 622.949219 188.769531 L 621.988281 188.859375 L 618.316406 189.503906 L 617.429688 189.582031 L 610.949219 190.695312 L 609.921875 190.800781 L 608.070312 191.179688 L 603.921875 191.761719 L 599.121094 192.632812 L 597.992188 192.714844 L 596.238281 193.117188 L 594.871094 193.195312 L 593.121094 193.597656 L 590.554688 193.917969 L 588.25 194.332031 L 587.402344 194.386719 L 587 194.269531 L 586.753906 193.949219 L 586.757812 192.894531 L 586.652344 192.136719 L 586.777344 191.023438 L 586.566406 189.417969 L 586.796875 187.574219 L 586.796875 173.285156 L 586.765625 172.667969 L 586.574219 171.589844 L 586.515625 168.746094 L 586.390625 168.3125 L 586.152344 167.90625 L 585.792969 167.546875 L 585.386719 167.316406 L 584.59375 167.160156 Z M 474.480469 185 L 472.632812 185.394531 L 471.882812 185.683594 L 471.15625 186.078125 L 470.546875 186.511719 L 470.242188 186.84375 L 470.019531 187.339844 L 469.941406 187.894531 L 469.941406 234.761719 L 470.140625 235.988281 L 470.234375 237.425781 L 470.714844 238.945312 L 471.222656 239.804688 L 472.164062 240.542969 L 472.597656 240.75 L 473.351562 240.960938 L 474.800781 241.183594 L 477.214844 241.027344 L 480.886719 240.386719 L 484.964844 239.8125 L 486.886719 239.421875 L 489.765625 239.089844 L 492.574219 238.472656 L 493.84375 238.367188 L 495.453125 237.988281 L 496.722656 237.886719 L 498.570312 237.507812 L 499.53125 237.417969 L 503.203125 236.773438 L 504.164062 236.683594 L 510.332031 235.582031 L 514.480469 234.996094 L 516.402344 234.605469 L 518.152344 234.355469 L 519.28125 234.273438 L 522.160156 233.644531 L 523.527344 233.5625 L 525.519531 233.160156 L 527.921875 232.828125 L 529.769531 232.453125 L 530.96875 232.359375 L 532.960938 231.957031 L 534.46875 231.707031 L 535.527344 231.636719 L 537.207031 231.246094 L 539.679688 230.902344 L 542.519531 229.992188 L 543.566406 229.511719 L 544.03125 229.175781 L 544.683594 228.550781 L 545.429688 227.773438 L 545.765625 227.304688 L 546.421875 225.878906 L 546.898438 223.714844 L 546.957031 223.125 L 546.957031 194.953125 L 546.898438 194.367188 L 546.664062 193.398438 L 546.132812 191.609375 L 545.550781 190.753906 L 544.625 190.078125 L 543.75 189.660156 L 542.375 189.363281 L 540.710938 189.332031 L 537.207031 189.835938 L 532.40625 190.707031 L 531.039062 190.785156 L 529.527344 191.1875 L 525.519531 191.75 L 523.289062 192.152344 L 522.089844 192.242188 L 514.648438 193.597656 L 513.523438 193.675781 L 509.851562 194.320312 L 508.890625 194.410156 L 505.53125 195.042969 L 504.402344 195.125 L 503.132812 195.519531 L 501.59375 195.59375 L 497.585938 196.246094 L 497.332031 196.1875 L 497.132812 196.003906 L 497.113281 195.796875 L 497.21875 195.535156 L 498.472656 193.816406 L 499.226562 192.972656 L 500.972656 190.710938 L 501.234375 190.171875 L 501.246094 189.691406 L 501.09375 189.285156 L 500.792969 188.867188 L 499.558594 187.535156 L 499.078125 187.132812 L 497.96875 186.40625 L 496.53125 185.679688 L 496.03125 185.527344 L 495.542969 185.578125 L 495.097656 185.859375 L 494.425781 186.550781 L 493.226562 188.15625 L 489.386719 192.8125 L 487.230469 195.625 L 484.554688 198.875 L 480.167969 204.511719 L 479.867188 205.171875 L 479.894531 205.816406 L 480.304688 206.53125 L 480.589844 206.808594 L 480.945312 207.011719 L 481.566406 207.113281 L 482.972656 207.078125 L 484.726562 206.675781 L 485.851562 206.597656 L 492.164062 205.472656 L 493.363281 205.382812 L 494.933594 205.117188 L 496.484375 204.75 L 497.683594 204.660156 L 499.363281 204.269531 L 500.492188 204.191406 L 503.921875 203.546875 L 506.730469 203.226562 L 508.410156 202.835938 L 509.609375 202.746094 L 511.671875 202.335938 L 512.730469 202.265625 L 514.410156 201.875 L 515.609375 201.78125 L 519.042969 201.140625 L 520.167969 201.058594 L 521.8125 200.785156 L 523.289062 200.429688 L 526 200.085938 L 527.847656 199.707031 L 532.238281 198.972656 L 533.609375 198.894531 L 537.253906 198.226562 L 538.183594 198.304688 L 538.421875 198.460938 L 538.5625 198.71875 L 538.554688 201.539062 L 538.394531 202.167969 L 538.1875 202.371094 L 537.914062 202.492188 L 535.527344 202.835938 L 533.679688 203.214844 L 529.601562 203.789062 L 527.679688 204.179688 L 526.71875 204.269531 L 523.050781 204.914062 L 522.160156 204.992188 L 518.488281 205.636719 L 517.601562 205.714844 L 512.800781 206.585938 L 508.652344 207.171875 L 506.972656 207.5625 L 505.222656 207.8125 L 504.164062 207.882812 L 497.925781 208.992188 L 495.285156 209.324219 L 493.292969 209.726562 L 492.164062 209.808594 L 485.925781 210.921875 L 484.726562 211.015625 L 481.847656 211.492188 L 479.925781 211.886719 L 479.089844 211.921875 L 478.75 211.863281 L 478.492188 211.722656 L 478.316406 211.496094 L 478.242188 211.164062 L 478.328125 210.042969 L 478.328125 206.113281 L 478.109375 204.429688 L 478.332031 202.742188 L 478.292969 186.398438 L 478.148438 185.984375 L 477.933594 185.714844 L 477.613281 185.476562 L 477.117188 185.25 L 476.105469 184.992188 Z M 463.441406 186.445312 L 461.71875 186.960938 L 460.378906 187.617188 L 460.027344 187.90625 L 459.714844 188.320312 L 459.492188 188.746094 L 459.402344 189.125 L 459.371094 218.230469 L 459.25 218.992188 L 459.035156 219.34375 L 458.710938 219.65625 L 457.199219 220.546875 L 454.507812 221.695312 L 453.527344 221.996094 L 451.488281 222.277344 L 448.769531 222.285156 L 446.5625 222.003906 L 446.027344 221.820312 L 445.613281 221.433594 L 445.464844 220.796875 L 445.453125 207.15625 L 445.402344 206.554688 L 445.242188 206.15625 L 444.929688 205.832031 L 444.464844 205.574219 L 442.722656 205.246094 L 442.253906 205.238281 L 440.5 205.484375 L 439.472656 205.808594 L 438.476562 206.332031 L 437.644531 206.945312 L 437.199219 207.625 L 437.089844 208.070312 L 437.058594 208.761719 L 437.058594 236.046875 L 437.085938 236.738281 L 437.289062 237.972656 L 437.3125 241.167969 L 437.617188 243.261719 L 438.199219 244.765625 L 438.476562 245.210938 L 438.828125 245.582031 L 439.851562 246.242188 L 441.210938 246.550781 L 441.8125 246.601562 L 442.585938 246.574219 L 443.59375 246.386719 L 444.746094 246.335938 L 446.332031 245.921875 L 448.078125 245.671875 L 449.136719 245.601562 L 453.9375 244.730469 L 455.136719 244.640625 L 457.058594 244.25 L 458.257812 244.15625 L 461.222656 243.609375 L 463.503906 242.925781 L 464.851562 242.1875 L 466.109375 240.886719 L 466.800781 239.734375 L 467.199219 238.527344 L 467.515625 236.84375 L 467.535156 228.742188 L 467.769531 226.898438 L 467.757812 188.535156 L 467.648438 187.851562 L 467.421875 187.195312 L 467.167969 186.890625 L 466.824219 186.671875 L 465.953125 186.429688 Z M 563.988281 191.746094 L 562.644531 192.070312 L 561.863281 192.5 L 561.253906 193.007812 L 560.375 194.210938 L 560.015625 195.21875 L 559.921875 196.078125 L 559.941406 198.222656 L 560.050781 198.589844 L 560.304688 198.820312 L 560.859375 198.863281 L 562.101562 198.515625 L 564.765625 198.132812 L 565.34375 197.910156 L 565.667969 197.59375 L 565.769531 197.121094 L 565.683594 196.078125 L 565.726562 193.113281 L 565.675781 192.707031 L 565.484375 192.34375 L 565.128906 192.050781 L 564.507812 191.792969 Z M 563.988281 191.746094 "/></svg>